<svg width="200" height="37" viewBox="0 0 200 37" fill="none" xmlns="http://www.w3.org/2000/svg">
<path d="M28.2399 16.2695C28.9172 14.8218 29.2625 13.1622 29.2625 11.4503C29.2625 6.47994 26.0214 2.37465 21.6133 0.958445V12.2856L28.2399 16.2695Z" fill="#E52207"/>
<path d="M20.934 12.7308V0.396873C20.004 0.147545 19.0282 0.0138607 18.0218 0.0138607H0.0542585L0 23.3979H18.0218C22.4426 23.3979 26.2752 20.8362 28.1821 17.0883L20.934 12.7308Z" fill="#FFCD07"/>
<path d="M47.0172 0.00038147V17.5068L27.3242 3.98121C28.9836 6.11136 29.9891 8.77544 29.9891 11.711C29.9891 13.5463 29.5308 15.3656 28.8434 16.9596L56.8656 35.9482L56.9277 0.013298L47.0172 0.00038147Z" fill="#168821"/>
<path d="M74.8955 0.0138607H57.8721V23.3979H74.8955C81.2169 23.3979 86.3416 18.1633 86.3416 11.706C86.3416 5.24851 81.2169 0.0138607 74.8955 0.0138607Z" fill="#155BCB"/>
<path d="M57.8506 29.0154V36.0078H66.8002V23.4381L57.8506 29.0154Z" fill="#FFCD07"/>
<path d="M31.373 36.2124L31.358 29.2353L21.4609 23.0676V36.2124H31.373Z" fill="#E52207"/>
<path d="M9.91073 36.0581L9.91656 29.6687L0 23.4882V36.0581H9.91073Z" fill="#757575"/>
<path d="M97.2282 29.459C97.7235 29.459 98.1564 29.5633 98.5266 29.7716C98.8967 29.9802 99.1714 30.2578 99.3507 30.6049L98.9041 30.8579C98.7853 30.6361 98.6286 30.4532 98.4337 30.3086C98.2387 30.1639 98.0396 30.0638 97.8369 30.0085C97.634 29.9529 97.4203 29.9252 97.1964 29.9252C96.9305 29.9252 96.6814 29.9671 96.4493 30.0501C96.2175 30.1331 96.0182 30.2459 95.8505 30.388C95.6832 30.5303 95.5397 30.6945 95.42 30.8813C95.2998 31.0683 95.211 31.266 95.153 31.4741C95.0949 31.6828 95.066 31.8942 95.066 32.1087C95.066 32.4942 95.1595 32.8563 95.3467 33.1948C95.5337 33.5335 95.7942 33.8056 96.1274 34.0117C96.4605 34.2177 96.8249 34.3209 97.2204 34.3209C97.447 34.3209 97.6694 34.2878 97.8883 34.2214C98.1069 34.1552 98.3169 34.0467 98.5187 33.8962C98.7203 33.7455 98.879 33.5618 98.9949 33.3449L99.4613 33.5653C99.3429 33.816 99.1575 34.0358 98.9059 34.2249C98.6544 34.4141 98.3804 34.555 98.0838 34.6481C97.7874 34.7408 97.4889 34.7871 97.1885 34.7871C96.8829 34.7871 96.589 34.7365 96.3074 34.6352C96.0253 34.5341 95.776 34.3949 95.5603 34.2177C95.3442 34.0408 95.1557 33.8382 94.9949 33.6106C94.8341 33.3828 94.7115 33.137 94.6272 32.8731C94.5429 32.6092 94.501 32.3447 94.501 32.0796C94.501 31.7593 94.5626 31.4448 94.6866 31.1364C94.8106 30.8278 94.985 30.5481 95.2104 30.2976C95.4357 30.047 95.7242 29.8446 96.0758 29.6905C96.4278 29.5361 96.8119 29.459 97.2282 29.459Z" fill="#5E5E5D"/>
<path d="M100.319 30.8862H100.869V34.7432H100.319V30.8862ZM100.319 29.339H100.869V30.08H100.319V29.339Z" fill="#5E5E5D"/>
<path d="M103.907 34.8154C103.506 34.8154 103.143 34.724 102.818 34.5407C102.492 34.3578 102.239 34.113 102.059 33.8068C101.878 33.5009 101.788 33.1659 101.788 32.8022C101.788 32.4382 101.876 32.1056 102.053 31.8042C102.23 31.5032 102.48 31.2639 102.804 31.0868C103.128 30.9096 103.493 30.8213 103.899 30.8213C104.291 30.8213 104.638 30.9031 104.938 31.0671C105.239 31.2309 105.465 31.4548 105.618 31.7392L105.081 31.8949C104.965 31.6972 104.799 31.5422 104.584 31.4302C104.37 31.3181 104.133 31.2621 103.875 31.2621C103.443 31.2621 103.08 31.4093 102.786 31.7031C102.492 31.9972 102.345 32.3636 102.345 32.8022C102.345 33.2358 102.497 33.6063 102.8 33.9137C103.103 34.2208 103.464 34.3746 103.883 34.3746C104.152 34.3746 104.408 34.3088 104.652 34.1776C104.895 34.0461 105.05 33.8913 105.116 33.7129L105.658 33.8612C105.539 34.1406 105.318 34.3697 104.996 34.5479C104.673 34.7262 104.31 34.8154 103.907 34.8154Z" fill="#5E5E5D"/>
<path d="M106.547 29.3396H107.096V33.8689C107.096 34.0473 107.129 34.1697 107.195 34.236C107.261 34.3022 107.357 34.3352 107.484 34.3352C107.663 34.3352 107.845 34.3065 108.029 34.2485L108.124 34.6534C108.021 34.6895 107.896 34.7209 107.748 34.7473C107.601 34.7738 107.473 34.7871 107.365 34.7871C107.112 34.7871 106.913 34.7203 106.766 34.5866C106.62 34.4527 106.547 34.2702 106.547 34.0389V29.3396Z" fill="#5E5E5D"/>
<path d="M109.442 33.9262C109.74 34.2251 110.101 34.3746 110.522 34.3746C110.944 34.3746 111.306 34.2225 111.607 33.919C111.909 33.6153 112.06 33.2489 112.06 32.82C112.06 32.3913 111.909 32.0244 111.607 31.7193C111.306 31.4147 110.944 31.2621 110.522 31.2621C110.248 31.2621 109.994 31.3322 109.76 31.4717C109.525 31.6117 109.339 31.8026 109.2 32.0447C109.062 32.2869 108.993 32.5502 108.993 32.8345C108.993 33.2637 109.142 33.6274 109.442 33.9262ZM108.436 32.8274C108.436 32.5598 108.488 32.3039 108.594 32.0593C108.699 31.8147 108.843 31.6014 109.025 31.4194C109.206 31.2375 109.428 31.0923 109.689 30.9837C109.949 30.8754 110.227 30.8211 110.522 30.8211C110.918 30.8211 111.277 30.9129 111.6 31.0958C111.922 31.2791 112.173 31.5235 112.352 31.8297C112.532 32.1358 112.621 32.4683 112.621 32.8274C112.621 33.1839 112.532 33.5134 112.354 33.8161C112.177 34.1183 111.926 34.3607 111.604 34.5425C111.281 34.7246 110.92 34.8154 110.522 34.8154C110.125 34.8154 109.765 34.7246 109.444 34.5425C109.122 34.3607 108.874 34.1183 108.699 33.8161C108.523 33.5134 108.436 33.1839 108.436 32.8274Z" fill="#5E5E5D"/>
<path d="M114.922 34.8154C114.202 34.8154 113.625 34.6059 113.19 34.1866L113.416 33.8323C113.859 34.2177 114.353 34.4105 114.898 34.4105C115.233 34.4105 115.501 34.3486 115.702 34.2243C115.904 34.1005 116.005 33.9274 116.005 33.7058C116.005 33.5708 115.955 33.4595 115.855 33.3713C115.754 33.2834 115.646 33.2215 115.531 33.1852C115.415 33.1491 115.213 33.0972 114.926 33.0297C114.852 33.0129 114.797 32.9998 114.76 32.9902C114.523 32.9299 114.329 32.8725 114.179 32.8183C114.029 32.764 113.893 32.6972 113.772 32.6176C113.65 32.5383 113.563 32.4448 113.511 32.3375C113.458 32.2305 113.432 32.1021 113.432 31.9525C113.432 31.5934 113.578 31.3152 113.871 31.1176C114.163 30.9201 114.542 30.8213 115.009 30.8213C115.325 30.8213 115.61 30.8676 115.862 30.9603C116.115 31.053 116.32 31.1838 116.475 31.3525L116.206 31.6925C115.914 31.3814 115.504 31.226 114.977 31.226C114.687 31.226 114.444 31.2804 114.246 31.3886C114.048 31.4971 113.95 31.6658 113.95 31.8949C113.95 31.9623 113.957 32.022 113.973 32.0736C113.989 32.1255 114.02 32.1725 114.066 32.2145C114.112 32.2567 114.156 32.2918 114.198 32.3195C114.241 32.3472 114.309 32.3773 114.404 32.4099C114.499 32.4425 114.581 32.469 114.649 32.4893C114.718 32.51 114.822 32.5383 114.961 32.5741C115.096 32.608 115.199 32.6338 115.272 32.6521C115.344 32.6701 115.436 32.6953 115.546 32.7279C115.657 32.7605 115.742 32.7882 115.801 32.8112C115.86 32.8339 115.931 32.8635 116.013 32.8995C116.094 32.9358 116.157 32.9707 116.2 33.0045C116.244 33.0382 116.291 33.0792 116.341 33.1275C116.391 33.1755 116.428 33.2256 116.451 33.2774C116.475 33.3293 116.496 33.3882 116.513 33.4544C116.53 33.5208 116.538 33.5924 116.538 33.6695C116.538 34.0262 116.392 34.3065 116.098 34.5101C115.804 34.7137 115.412 34.8154 114.922 34.8154Z" fill="#5E5E5D"/>
<path d="M122.748 33.4167V32.2272C122.643 31.9623 122.447 31.7351 122.159 31.5461C121.872 31.3568 121.583 31.2621 121.29 31.2621C121 31.2621 120.738 31.3382 120.505 31.4901C120.272 31.6418 120.095 31.8358 119.974 32.0718C119.853 32.3082 119.792 32.5598 119.792 32.8274C119.792 33.1021 119.861 33.3582 119.999 33.5954C120.138 33.8329 120.328 34.0221 120.57 34.1632C120.813 34.3041 121.078 34.3746 121.365 34.3746C121.652 34.3746 121.943 34.278 122.239 34.0853C122.534 33.8925 122.704 33.6695 122.748 33.4167ZM119.227 32.8274C119.227 32.4659 119.308 32.1327 119.472 31.828C119.635 31.5231 119.865 31.2791 120.161 31.096C120.458 30.9129 120.788 30.8213 121.152 30.8213C121.486 30.8213 121.794 30.9025 122.074 31.0653C122.355 31.2279 122.58 31.437 122.748 31.6925V29.339H123.298V34.1359C123.298 34.2058 123.313 34.2565 123.343 34.2877C123.373 34.319 123.423 34.3371 123.491 34.342V34.7433C123.375 34.7576 123.293 34.7623 123.243 34.7576C123.127 34.7504 123.026 34.709 122.94 34.6329C122.854 34.5571 122.812 34.471 122.812 34.3746V33.9949C122.646 34.2456 122.42 34.4451 122.136 34.5932C121.851 34.7414 121.553 34.8154 121.242 34.8154C120.958 34.8154 120.688 34.7607 120.434 34.6512C120.18 34.5413 119.966 34.3949 119.792 34.2118C119.618 34.0287 119.48 33.8167 119.379 33.5756C119.277 33.3348 119.227 33.0853 119.227 32.8274Z" fill="#5E5E5D"/>
<path d="M124.811 32.6322H127.93C127.896 32.2178 127.73 31.8772 127.434 31.6111C127.137 31.3449 126.781 31.2117 126.365 31.2117C125.948 31.2117 125.592 31.3456 125.295 31.6129C124.999 31.8803 124.838 32.22 124.811 32.6322ZM126.365 34.8154C125.967 34.8154 125.605 34.724 125.28 34.5409C124.954 34.3578 124.702 34.1126 124.523 33.8052C124.343 33.4981 124.254 33.1636 124.254 32.8022C124.254 32.4456 124.343 32.1159 124.523 31.8135C124.702 31.511 124.954 31.2701 125.278 31.0905C125.602 30.9109 125.961 30.8213 126.357 30.8213C126.757 30.8213 127.119 30.9121 127.442 31.0942C127.764 31.2763 128.013 31.5172 128.187 31.8169C128.361 32.1171 128.448 32.4431 128.448 32.795C128.448 32.9057 128.445 32.9732 128.44 32.9973H124.827C124.861 33.4095 125.029 33.7517 125.329 34.024C125.629 34.2963 125.984 34.4322 126.392 34.4322C126.669 34.4322 126.928 34.368 127.171 34.2391C127.413 34.1101 127.584 33.9422 127.685 33.7347L128.163 33.854C128.031 34.1384 127.8 34.3699 127.469 34.5481C127.139 34.7264 126.77 34.8154 126.365 34.8154Z" fill="#5E5E5D"/>
<path d="M133.819 29.458C134.314 29.458 134.747 29.5624 135.117 29.7707C135.488 29.9792 135.762 30.2568 135.942 30.604L135.495 30.857C135.376 30.6351 135.219 30.4522 135.025 30.3077C134.83 30.1629 134.63 30.0629 134.428 30.0075C134.225 29.9519 134.011 29.9242 133.787 29.9242C133.521 29.9242 133.272 29.9661 133.04 30.0491C132.808 30.1322 132.609 30.2449 132.441 30.387C132.274 30.5293 132.131 30.6936 132.011 30.8803C131.891 31.0673 131.802 31.265 131.744 31.4731C131.686 31.6818 131.657 31.8932 131.657 32.1077C131.657 32.4932 131.75 32.8553 131.937 33.1938C132.124 33.5325 132.385 33.8046 132.718 34.0107C133.051 34.2167 133.416 34.3199 133.811 34.3199C134.038 34.3199 134.26 34.2869 134.479 34.2204C134.698 34.1542 134.908 34.0457 135.11 33.8952C135.311 33.7445 135.47 33.5608 135.586 33.3439L136.052 33.5643C135.934 33.8151 135.748 34.0349 135.497 34.2239C135.245 34.4132 134.971 34.554 134.675 34.6471C134.378 34.7398 134.08 34.7861 133.779 34.7861C133.474 34.7861 133.18 34.7355 132.898 34.6342C132.616 34.5331 132.367 34.3939 132.151 34.2167C131.935 34.0398 131.746 33.8372 131.586 33.6096C131.425 33.3818 131.302 33.136 131.218 32.8721C131.134 32.6082 131.092 32.3437 131.092 32.0786C131.092 31.7583 131.153 31.4438 131.277 31.1354C131.401 30.8268 131.576 30.5472 131.801 30.2966C132.027 30.046 132.315 29.8437 132.667 29.6895C133.019 29.5351 133.403 29.458 133.819 29.458Z" fill="#5E5E5D"/>
<path d="M137.621 33.9262C137.92 34.2251 138.28 34.3746 138.702 34.3746C139.124 34.3746 139.485 34.2225 139.787 33.919C140.089 33.6153 140.24 33.2489 140.24 32.82C140.24 32.3913 140.089 32.0244 139.787 31.7193C139.485 31.4147 139.124 31.2621 138.702 31.2621C138.428 31.2621 138.174 31.3322 137.939 31.4717C137.705 31.6117 137.518 31.8026 137.38 32.0447C137.242 32.2869 137.173 32.5502 137.173 32.8345C137.173 33.2637 137.322 33.6274 137.621 33.9262ZM136.615 32.8274C136.615 32.5598 136.668 32.3039 136.773 32.0593C136.879 31.8147 137.022 31.6014 137.204 31.4194C137.386 31.2375 137.607 31.0923 137.868 30.9837C138.129 30.8754 138.407 30.8211 138.702 30.8211C139.097 30.8211 139.457 30.9129 139.779 31.0958C140.102 31.2791 140.353 31.5235 140.532 31.8297C140.711 32.1358 140.801 32.4683 140.801 32.8274C140.801 33.1839 140.712 33.5134 140.534 33.8161C140.356 34.1183 140.106 34.3607 139.783 34.5425C139.46 34.7246 139.1 34.8154 138.702 34.8154C138.304 34.8154 137.945 34.7246 137.623 34.5425C137.302 34.3607 137.053 34.1183 136.878 33.8161C136.703 33.5134 136.615 33.1839 136.615 32.8274Z" fill="#5E5E5D"/>
<path d="M141.748 29.3387H142.298V33.868C142.298 34.0464 142.331 34.1688 142.396 34.235C142.462 34.3012 142.558 34.3342 142.685 34.3342C142.864 34.3342 143.046 34.3055 143.23 34.2475L143.325 34.6524C143.222 34.6885 143.097 34.7199 142.95 34.7464C142.802 34.7728 142.674 34.7861 142.566 34.7861C142.313 34.7861 142.114 34.7193 141.968 34.5856C141.821 34.4517 141.748 34.2692 141.748 34.0379V29.3387Z" fill="#5E5E5D"/>
<path d="M144.188 32.6322H147.307C147.273 32.2178 147.107 31.8772 146.811 31.6111C146.514 31.3449 146.158 31.2117 145.742 31.2117C145.325 31.2117 144.969 31.3456 144.672 31.6129C144.376 31.8803 144.214 32.22 144.188 32.6322ZM145.742 34.8154C145.344 34.8154 144.982 34.724 144.657 34.5409C144.331 34.3578 144.079 34.1126 143.9 33.8052C143.72 33.4981 143.631 33.1636 143.631 32.8022C143.631 32.4456 143.72 32.1159 143.9 31.8135C144.079 31.511 144.331 31.2701 144.655 31.0905C144.979 30.9109 145.338 30.8213 145.734 30.8213C146.134 30.8213 146.496 30.9121 146.819 31.0942C147.141 31.2763 147.39 31.5172 147.564 31.8169C147.738 32.1171 147.825 32.4431 147.825 32.795C147.825 32.9057 147.822 32.9732 147.817 32.9973H144.204C144.238 33.4095 144.406 33.7517 144.706 34.024C145.006 34.2963 145.361 34.4322 145.769 34.4322C146.046 34.4322 146.305 34.368 146.548 34.2391C146.79 34.1101 146.961 33.9422 147.062 33.7347L147.54 33.854C147.408 34.1384 147.177 34.3699 146.846 34.5481C146.515 34.7264 146.147 34.8154 145.742 34.8154Z" fill="#5E5E5D"/>
<path d="M150.661 34.5583C150.659 34.5608 150.632 34.5723 150.58 34.5928C150.529 34.6133 150.487 34.6295 150.454 34.6416C150.421 34.6537 150.371 34.6699 150.305 34.6904C150.24 34.7109 150.179 34.7271 150.124 34.7392C150.068 34.7511 150.003 34.7619 149.926 34.7716C149.85 34.7812 149.776 34.7861 149.705 34.7861C149.452 34.7861 149.24 34.7218 149.07 34.5928C148.9 34.4638 148.815 34.2811 148.815 34.0451V31.2871H148.23V30.8859H148.815V29.5845H149.365V30.8859H150.337V31.2871H149.365V33.9077C149.375 34.0427 149.428 34.145 149.523 34.2149C149.618 34.285 149.735 34.3199 149.875 34.3199C150.104 34.3199 150.317 34.2633 150.515 34.1499L150.661 34.5583Z" fill="#5E5E5D"/>
<path d="M153.83 33.9299C153.954 33.8021 154.016 33.6781 154.016 33.5577V32.9973C153.649 32.8624 153.262 32.795 152.854 32.795C152.456 32.795 152.136 32.8678 151.895 33.0135C151.654 33.1593 151.534 33.3539 151.534 33.5973C151.534 33.8239 151.627 34.0197 151.814 34.1847C152.001 34.3498 152.25 34.4322 152.561 34.4322C152.822 34.4322 153.067 34.3861 153.296 34.293C153.526 34.2003 153.703 34.0793 153.83 33.9299ZM151.008 33.6336C151.008 33.2793 151.172 32.9945 151.5 32.7786C151.828 32.5629 152.257 32.4552 152.786 32.4552C153.24 32.4552 153.649 32.5143 154.016 32.6322V32.307C154.016 31.9791 153.909 31.7195 153.697 31.5278C153.485 31.3363 153.195 31.2406 152.826 31.2406C152.402 31.2406 151.951 31.3911 151.474 31.6925L151.265 31.3382C151.813 30.9937 152.353 30.8213 152.885 30.8213C153.404 30.8213 153.815 30.9574 154.116 31.2297C154.418 31.502 154.569 31.8754 154.569 32.3502V34.1359C154.569 34.2058 154.585 34.2565 154.617 34.2877C154.648 34.319 154.7 34.3371 154.771 34.342V34.7433C154.639 34.7576 154.555 34.7625 154.518 34.7576C154.388 34.7551 154.288 34.7187 154.215 34.6475C154.143 34.5764 154.104 34.4952 154.099 34.4035L154.091 34.1216C153.904 34.3383 153.66 34.5083 153.359 34.6311C153.059 34.7541 152.75 34.8154 152.431 34.8154C152.022 34.8154 151.683 34.7016 151.413 34.4738C151.143 34.2462 151.008 33.9662 151.008 33.6336Z" fill="#5E5E5D"/>
<path d="M158.087 32.6322H161.205C161.171 32.2178 161.006 31.8772 160.709 31.6111C160.413 31.3449 160.056 31.2117 159.64 31.2117C159.224 31.2117 158.867 31.3456 158.571 31.6129C158.274 31.8803 158.113 32.22 158.087 32.6322ZM159.64 34.8154C159.242 34.8154 158.88 34.724 158.555 34.5409C158.229 34.3578 157.977 34.1126 157.798 33.8052C157.619 33.4981 157.529 33.1636 157.529 32.8022C157.529 32.4456 157.619 32.1159 157.798 31.8135C157.977 31.511 158.229 31.2701 158.553 31.0905C158.877 30.9109 159.237 30.8213 159.632 30.8213C160.033 30.8213 160.394 30.9121 160.717 31.0942C161.04 31.2763 161.288 31.5172 161.462 31.8169C161.636 32.1171 161.723 32.4431 161.723 32.795C161.723 32.9057 161.72 32.9732 161.715 32.9973H158.102C158.137 33.4095 158.304 33.7517 158.604 34.024C158.905 34.2963 159.259 34.4322 159.668 34.4322C159.944 34.4322 160.204 34.368 160.446 34.2391C160.689 34.1101 160.86 33.9422 160.96 33.7347L161.438 33.854C161.306 34.1384 161.075 34.3699 160.745 34.5481C160.414 34.7264 160.046 34.8154 159.64 34.8154Z" fill="#5E5E5D"/>
<path d="M164.446 29.4874L166.502 34.0998L168.549 29.4874H169.142L166.763 34.7432H166.245L163.857 29.4874H164.446Z" fill="#5E5E5D"/>
<path d="M171.915 33.9299C172.039 33.8021 172.101 33.6781 172.101 33.5577V32.9973C171.734 32.8624 171.347 32.795 170.939 32.795C170.541 32.795 170.221 32.8678 169.98 33.0135C169.739 33.1593 169.619 33.3539 169.619 33.5973C169.619 33.8239 169.712 34.0197 169.899 34.1847C170.086 34.3498 170.335 34.4322 170.646 34.4322C170.907 34.4322 171.152 34.3861 171.381 34.293C171.611 34.2003 171.788 34.0793 171.915 33.9299ZM169.093 33.6336C169.093 33.2793 169.257 32.9945 169.585 32.7786C169.913 32.5629 170.342 32.4552 170.871 32.4552C171.325 32.4552 171.734 32.5143 172.101 32.6322V32.307C172.101 31.9791 171.994 31.7195 171.782 31.5278C171.57 31.3363 171.28 31.2406 170.911 31.2406C170.487 31.2406 170.036 31.3911 169.559 31.6925L169.35 31.3382C169.898 30.9937 170.438 30.8213 170.97 30.8213C171.489 30.8213 171.9 30.9574 172.201 31.2297C172.503 31.502 172.654 31.8754 172.654 32.3502V34.1359C172.654 34.2058 172.67 34.2565 172.702 34.2877C172.733 34.319 172.785 34.3371 172.856 34.342V34.7433C172.724 34.7576 172.639 34.7625 172.602 34.7576C172.473 34.7551 172.373 34.7187 172.3 34.6475C172.228 34.5764 172.189 34.4952 172.184 34.4035L172.176 34.1216C171.989 34.3383 171.745 34.5083 171.444 34.6311C171.144 34.7541 170.835 34.8154 170.516 34.8154C170.107 34.8154 169.768 34.7016 169.498 34.4738C169.228 34.2462 169.093 33.9662 169.093 33.6336Z" fill="#5E5E5D"/>
<path d="M173.87 29.3387H174.42V33.868C174.42 34.0464 174.453 34.1688 174.519 34.235C174.584 34.3012 174.68 34.3342 174.807 34.3342C174.986 34.3342 175.168 34.3055 175.352 34.2475L175.447 34.6524C175.344 34.6885 175.219 34.7199 175.072 34.7464C174.924 34.7728 174.797 34.7861 174.688 34.7861C174.435 34.7861 174.236 34.7193 174.09 34.5856C173.943 34.4517 173.87 34.2692 173.87 34.0379V29.3387Z" fill="#5E5E5D"/>
<path d="M176.047 30.8862H176.596V34.7432H176.047V30.8862ZM176.047 29.339H176.596V30.08H176.047V29.339Z" fill="#5E5E5D"/>
<path d="M181.046 33.4167V32.2272C180.941 31.9623 180.744 31.7351 180.457 31.5461C180.17 31.3568 179.88 31.2621 179.588 31.2621C179.298 31.2621 179.036 31.3382 178.803 31.4901C178.57 31.6418 178.393 31.8358 178.271 32.0718C178.15 32.3082 178.09 32.5598 178.09 32.8274C178.09 33.1021 178.159 33.3582 178.297 33.5954C178.435 33.8329 178.626 34.0221 178.868 34.1632C179.111 34.3041 179.376 34.3746 179.663 34.3746C179.95 34.3746 180.241 34.278 180.536 34.0853C180.831 33.8925 181.001 33.6695 181.046 33.4167ZM177.524 32.8274C177.524 32.4659 177.606 32.1327 177.77 31.828C177.933 31.5231 178.163 31.2791 178.459 31.096C178.756 30.9129 179.086 30.8213 179.449 30.8213C179.784 30.8213 180.092 30.9025 180.372 31.0653C180.653 31.2279 180.878 31.437 181.046 31.6925V29.339H181.596V34.1359C181.596 34.2058 181.611 34.2565 181.641 34.2877C181.671 34.319 181.721 34.3371 181.789 34.342V34.7433C181.673 34.7576 181.59 34.7623 181.54 34.7576C181.424 34.7504 181.324 34.709 181.238 34.6329C181.152 34.5571 181.109 34.471 181.109 34.3746V33.9949C180.944 34.2456 180.718 34.4451 180.434 34.5932C180.149 34.7414 179.851 34.8154 179.54 34.8154C179.256 34.8154 178.986 34.7607 178.732 34.6512C178.478 34.5413 178.264 34.3949 178.09 34.2118C177.916 34.0287 177.778 33.8167 177.677 33.5756C177.575 33.3348 177.524 33.0853 177.524 32.8274Z" fill="#5E5E5D"/>
<path d="M185.323 33.9299C185.447 33.8021 185.509 33.6781 185.509 33.5577V32.9973C185.143 32.8624 184.755 32.795 184.347 32.795C183.949 32.795 183.629 32.8678 183.388 33.0135C183.147 33.1593 183.027 33.3539 183.027 33.5973C183.027 33.8239 183.12 34.0197 183.307 34.1847C183.494 34.3498 183.743 34.4322 184.054 34.4322C184.315 34.4322 184.56 34.3861 184.789 34.293C185.019 34.2003 185.197 34.0793 185.323 33.9299ZM182.501 33.6336C182.501 33.2793 182.665 32.9945 182.993 32.7786C183.321 32.5629 183.75 32.4552 184.28 32.4552C184.733 32.4552 185.143 32.5143 185.509 32.6322V32.307C185.509 31.9791 185.403 31.7195 185.191 31.5278C184.978 31.3363 184.688 31.2406 184.319 31.2406C183.895 31.2406 183.444 31.3911 182.967 31.6925L182.758 31.3382C183.306 30.9937 183.846 30.8213 184.378 30.8213C184.897 30.8213 185.308 30.9574 185.61 31.2297C185.911 31.502 186.062 31.8754 186.062 32.3502V34.1359C186.062 34.2058 186.078 34.2565 186.11 34.2877C186.141 34.319 186.193 34.3371 186.264 34.342V34.7433C186.132 34.7576 186.048 34.7625 186.011 34.7576C185.882 34.7551 185.781 34.7187 185.708 34.6475C185.636 34.5764 185.597 34.4952 185.592 34.4035L185.584 34.1216C185.397 34.3383 185.153 34.5083 184.853 34.6311C184.552 34.7541 184.243 34.8154 183.924 34.8154C183.515 34.8154 183.176 34.7016 182.906 34.4738C182.636 34.2462 182.501 33.9662 182.501 33.6336Z" fill="#5E5E5D"/>
<path d="M190.83 33.8613C190.73 34.0975 190.553 34.3001 190.3 34.4686C190.047 34.6374 189.757 34.7456 189.43 34.794C189.694 34.9865 189.826 35.2049 189.826 35.4481C189.826 35.6482 189.751 35.803 189.6 35.9127C189.45 36.0222 189.245 36.0771 188.984 36.0771C188.665 36.0771 188.357 36.0072 188.059 35.8674L188.221 35.5783C188.471 35.6868 188.695 35.7411 188.893 35.7411C189.267 35.7411 189.454 35.6158 189.454 35.365C189.454 35.1649 189.308 34.9818 189.015 34.8155C188.625 34.8059 188.272 34.7085 187.956 34.523C187.64 34.3372 187.395 34.0934 187.221 33.7908C187.047 33.4885 186.96 33.1588 186.96 32.8023C186.96 32.4385 187.048 32.1057 187.225 31.8045C187.401 31.5033 187.652 31.2641 187.976 31.0871C188.3 30.9098 188.665 30.8214 189.071 30.8214C189.463 30.8214 189.81 30.9032 190.11 31.0672C190.411 31.2311 190.637 31.4552 190.79 31.7393L190.253 31.895C190.136 31.6973 189.971 31.5423 189.756 31.4306C189.542 31.3184 189.305 31.2622 189.047 31.2622C188.615 31.2622 188.252 31.4094 187.958 31.7035C187.664 31.9973 187.518 32.3637 187.518 32.8023C187.518 33.2359 187.669 33.6064 187.972 33.9138C188.275 34.2209 188.636 34.3747 189.055 34.3747C189.324 34.3747 189.58 34.3091 189.824 34.1777C190.067 34.0462 190.222 33.8914 190.288 33.713L190.83 33.8613Z" fill="#5E5E5D"/>
<path d="M192.671 29.7223C192.589 29.7223 192.518 29.7385 192.459 29.7711C192.4 29.8035 192.358 29.8434 192.333 29.8902C192.308 29.9373 192.291 29.9765 192.281 30.0079C192.272 30.0392 192.267 30.0632 192.267 30.0801H191.928C191.928 30.0417 191.938 29.9898 191.959 29.9246C191.98 29.8596 192.015 29.7844 192.064 29.6989C192.113 29.6134 192.19 29.5402 192.295 29.4801C192.4 29.4198 192.523 29.3897 192.663 29.3897C192.789 29.3897 192.911 29.4157 193.028 29.4674C193.145 29.5193 193.26 29.5711 193.37 29.623C193.481 29.6749 193.591 29.7007 193.702 29.7007C193.781 29.7007 193.851 29.6886 193.91 29.6644C193.969 29.6404 194.014 29.6128 194.044 29.5814C194.075 29.55 194.099 29.5156 194.119 29.4783C194.139 29.4409 194.151 29.4114 194.155 29.3897C194.159 29.368 194.161 29.3511 194.161 29.339H194.501C194.501 29.3753 194.489 29.4254 194.467 29.4891C194.445 29.5531 194.407 29.6271 194.354 29.7114C194.302 29.7957 194.219 29.868 194.107 29.9283C193.995 29.9886 193.863 30.0185 193.71 30.0185C193.573 30.0185 193.442 29.9939 193.317 29.9445C193.192 29.8953 193.076 29.8459 192.969 29.7963C192.862 29.7471 192.763 29.7223 192.671 29.7223ZM194.177 33.9299C194.301 33.8019 194.362 33.6781 194.362 33.5575V32.9973C193.996 32.8622 193.609 32.7948 193.2 32.7948C192.802 32.7948 192.483 32.8678 192.242 33.0135C192.001 33.1593 191.88 33.3539 191.88 33.5971C191.88 33.8239 191.974 34.0197 192.161 34.1847C192.348 34.3496 192.597 34.4322 192.908 34.4322C193.169 34.4322 193.414 34.3859 193.643 34.293C193.872 34.2003 194.05 34.0793 194.177 33.9299ZM191.354 33.6334C191.354 33.2793 191.518 32.9943 191.846 32.7784C192.174 32.5629 192.603 32.455 193.133 32.455C193.586 32.455 193.996 32.5141 194.362 32.632V32.3068C194.362 31.9791 194.256 31.7193 194.044 31.5278C193.832 31.3361 193.542 31.2404 193.173 31.2404C192.748 31.2404 192.298 31.3911 191.821 31.6923L191.611 31.3382C192.159 30.9935 192.699 30.8211 193.232 30.8211C193.751 30.8211 194.161 30.9572 194.463 31.2297C194.765 31.502 194.916 31.8754 194.916 32.35V34.1357C194.916 34.2056 194.931 34.2563 194.963 34.2877C194.995 34.319 195.046 34.3371 195.117 34.3418V34.7431C194.985 34.7576 194.901 34.7623 194.864 34.7576C194.735 34.7551 194.634 34.7184 194.562 34.6475C194.489 34.5764 194.451 34.495 194.445 34.4033L194.438 34.1214C194.25 34.3383 194.007 34.5083 193.706 34.6309C193.406 34.7539 193.096 34.8154 192.777 34.8154C192.369 34.8154 192.03 34.7014 191.76 34.4738C191.489 34.246 191.354 33.966 191.354 33.6334Z" fill="#5E5E5D"/>
<path d="M196.819 33.9262C197.118 34.2251 197.479 34.3746 197.9 34.3746C198.322 34.3746 198.684 34.2225 198.985 33.919C199.287 33.6153 199.438 33.2489 199.438 32.82C199.438 32.3913 199.287 32.0244 198.985 31.7193C198.684 31.4147 198.322 31.2621 197.9 31.2621C197.626 31.2621 197.372 31.3322 197.138 31.4717C196.903 31.6117 196.717 31.8026 196.578 32.0447C196.44 32.2869 196.371 32.5502 196.371 32.8345C196.371 33.2637 196.52 33.6274 196.819 33.9262ZM195.813 32.8274C195.813 32.5598 195.866 32.3039 195.972 32.0593C196.077 31.8147 196.221 31.6014 196.402 31.4194C196.584 31.2375 196.806 31.0923 197.067 30.9837C197.327 30.8754 197.605 30.8211 197.9 30.8211C198.296 30.8211 198.655 30.9129 198.977 31.0958C199.3 31.2791 199.551 31.5235 199.73 31.8297C199.91 32.1358 199.999 32.4683 199.999 32.8274C199.999 33.1839 199.91 33.5134 199.732 33.8161C199.555 34.1183 199.304 34.3607 198.981 34.5425C198.659 34.7246 198.298 34.8154 197.9 34.8154C197.503 34.8154 197.143 34.7246 196.821 34.5425C196.5 34.3607 196.252 34.1183 196.076 33.8161C195.901 33.5134 195.813 33.1839 195.813 32.8274Z" fill="#5E5E5D"/>
<path d="M95.1231 6.46654H98.1631C98.5382 6.46654 98.8733 6.36853 99.1686 6.17292C99.4643 5.97711 99.6868 5.72942 99.8365 5.42986C99.9861 5.1303 100.061 4.81228 100.061 4.47622C100.061 3.95317 99.8668 3.49409 99.4785 3.09939C99.0901 2.70428 98.629 2.50682 98.0949 2.50682H95.1231V6.46654ZM94.7197 9.72461V2.16913H98.1061C98.4357 2.16913 98.7491 2.23597 99.0466 2.36904C99.3439 2.50252 99.5951 2.67762 99.7995 2.89414C100.004 3.11046 100.166 3.35733 100.285 3.63454C100.405 3.91155 100.464 4.19225 100.464 4.47622C100.464 4.8781 100.37 5.25578 100.18 5.60907C99.9906 5.96235 99.7188 6.25084 99.3648 6.47433C99.0106 6.69782 98.6139 6.80957 98.1745 6.80957H95.1231V9.72461H94.7197Z" fill="#605F5F"/>
<path d="M102.742 1.95577H103.151V8.77865C103.151 9.00029 103.214 9.16761 103.339 9.28017C103.464 9.39274 103.634 9.44913 103.85 9.44913C104.028 9.44913 104.257 9.41263 104.538 9.33984L104.629 9.64125C104.341 9.73126 104.045 9.77637 103.742 9.77637C103.443 9.77637 103.201 9.6923 103.018 9.52437C102.834 9.35645 102.742 9.13193 102.742 8.85144V1.95577Z" fill="#605F5F"/>
<path d="M110.24 8.61737C110.381 8.45805 110.451 8.30222 110.451 8.14968V7.13637C109.852 6.92518 109.208 6.81959 108.519 6.81959C107.875 6.81959 107.355 6.9383 106.959 7.17533C106.563 7.41277 106.365 7.72709 106.365 8.11851C106.365 8.50665 106.523 8.83738 106.84 9.1111C107.156 9.38483 107.549 9.52159 108.019 9.52159C108.492 9.52159 108.931 9.43855 109.334 9.27206C109.738 9.10598 110.04 8.88761 110.24 8.61737ZM105.984 8.13942C105.984 7.66127 106.218 7.27252 106.686 6.97275C107.154 6.67319 107.757 6.5231 108.496 6.5231C109.193 6.5231 109.845 6.62193 110.451 6.81959V6.23215C110.451 5.68839 110.276 5.25268 109.928 4.92544C109.579 4.59799 109.117 4.43416 108.541 4.43416C107.939 4.43416 107.291 4.65766 106.598 5.10464L106.405 4.83973C107.181 4.35112 107.901 4.10692 108.564 4.10692C109.265 4.10692 109.821 4.30007 110.232 4.68636C110.643 5.07265 110.848 5.59489 110.848 6.25306V9.17344C110.848 9.32926 110.918 9.40718 111.059 9.40718V9.72417C110.949 9.73463 110.875 9.73114 110.837 9.71371C110.731 9.693 110.646 9.64195 110.581 9.56055C110.517 9.47915 110.481 9.38483 110.473 9.27739V8.79924C110.197 9.12484 109.838 9.37786 109.397 9.55809C108.955 9.73811 108.481 9.82812 107.973 9.82812C107.409 9.82812 106.936 9.66532 106.556 9.33972C106.175 9.01412 105.984 8.61388 105.984 8.13942Z" fill="#605F5F"/>
<path d="M116.059 9.46914C116.055 9.46914 116.028 9.48206 115.979 9.5081C115.93 9.53414 115.871 9.561 115.803 9.58868C115.735 9.61656 115.654 9.64506 115.562 9.67438C115.469 9.70391 115.363 9.7281 115.244 9.74717C115.124 9.76624 115.004 9.77588 114.883 9.77588C114.568 9.77588 114.304 9.69366 114.09 9.52901C113.876 9.36437 113.769 9.14169 113.769 8.8612V4.50658H112.905V4.1898H113.769V2.28252H114.161V4.1898H115.593V4.50658H114.161V8.80912C114.176 9.00678 114.26 9.16097 114.411 9.27169C114.563 9.38261 114.744 9.43818 114.957 9.43818C115.108 9.43818 115.261 9.41727 115.414 9.37564C115.567 9.33422 115.684 9.29424 115.764 9.2561C115.843 9.21797 115.892 9.19049 115.911 9.17306L116.059 9.46914Z" fill="#605F5F"/>
<path d="M121.791 8.61737C121.931 8.45805 122.001 8.30222 122.001 8.14968V7.13637C121.403 6.92518 120.759 6.81959 120.07 6.81959C119.426 6.81959 118.905 6.9383 118.51 7.17533C118.114 7.41277 117.916 7.72709 117.916 8.11851C117.916 8.50665 118.074 8.83738 118.39 9.1111C118.707 9.38483 119.1 9.52159 119.569 9.52159C120.043 9.52159 120.481 9.43855 120.885 9.27206C121.288 9.10598 121.59 8.88761 121.791 8.61737ZM117.535 8.13942C117.535 7.66127 117.769 7.27252 118.237 6.97275C118.705 6.67319 119.308 6.5231 120.047 6.5231C120.744 6.5231 121.395 6.62193 122.001 6.81959V6.23215C122.001 5.68839 121.827 5.25268 121.479 4.92544C121.13 4.59799 120.668 4.43416 120.092 4.43416C119.49 4.43416 118.842 4.65766 118.149 5.10464L117.956 4.83973C118.732 4.35112 119.452 4.10692 120.115 4.10692C120.816 4.10692 121.372 4.30007 121.783 4.68636C122.194 5.07265 122.399 5.59489 122.399 6.25306V9.17344C122.399 9.32926 122.469 9.40718 122.609 9.40718V9.72417C122.499 9.73463 122.426 9.73114 122.388 9.71371C122.282 9.693 122.197 9.64195 122.132 9.56055C122.068 9.47915 122.032 9.38483 122.024 9.27739V8.79924C121.748 9.12484 121.389 9.37786 120.947 9.55809C120.506 9.73811 120.032 9.82812 119.524 9.82812C118.96 9.82812 118.487 9.66532 118.106 9.33972C117.726 9.01412 117.535 8.61388 117.535 8.13942Z" fill="#605F5F"/>
<path d="M125.34 9.72461V4.50739H124.477V4.1904H125.34V3.98782C125.34 3.31919 125.486 2.79511 125.778 2.41579C126.069 2.03647 126.475 1.8468 126.994 1.8468C127.217 1.8468 127.433 1.88064 127.641 1.94809C127.85 2.01576 128.017 2.10331 128.142 2.21075L127.948 2.45495C127.85 2.3717 127.717 2.30507 127.551 2.25463C127.384 2.2046 127.213 2.17938 127.039 2.17938C126.622 2.17938 126.301 2.33541 126.076 2.64707C125.85 2.95894 125.738 3.40572 125.738 3.98782V4.1904H127.505V4.50739H125.738V9.72461H125.34Z" fill="#605F5F"/>
<path d="M131.804 9.49043C132.145 9.49043 132.471 9.42297 132.781 9.28785C133.092 9.15273 133.36 8.97168 133.586 8.7447C133.811 8.51793 133.991 8.24932 134.125 7.93931C134.26 7.62929 134.327 7.30635 134.327 6.97009C134.327 6.51982 134.214 6.10072 133.989 5.71279C133.764 5.32465 133.458 5.01627 133.071 4.78765C132.685 4.55903 132.266 4.44462 131.816 4.44462C131.369 4.44462 130.952 4.56006 130.566 4.79032C130.179 5.02078 129.872 5.33162 129.645 5.72304C129.418 6.11466 129.304 6.53725 129.304 6.991C129.304 7.67686 129.549 8.26491 130.04 8.75516C130.53 9.2454 131.118 9.49043 131.804 9.49043ZM129.287 8.39921C129.033 7.96268 128.906 7.48965 128.906 6.98054C128.906 6.47143 129.036 5.99595 129.295 5.55409C129.555 5.11243 129.908 4.76079 130.355 4.49937C130.802 4.23774 131.289 4.10692 131.816 4.10692C132.346 4.10692 132.835 4.23774 133.284 4.49937C133.733 4.76079 134.087 5.11243 134.347 5.55409C134.606 5.99595 134.736 6.47143 134.736 6.98054C134.736 7.48965 134.608 7.96268 134.353 8.39921C134.097 8.83574 133.744 9.18307 133.293 9.44122C132.842 9.69916 132.35 9.82812 131.816 9.82812C131.281 9.82812 130.79 9.69916 130.341 9.44122C129.892 9.18307 129.541 8.83574 129.287 8.39921Z" fill="#605F5F"/>
<path d="M139.835 4.53343C139.279 4.55414 138.795 4.71612 138.384 5.01917C137.973 5.32242 137.686 5.73045 137.523 6.24305V9.72461H137.125V4.1904H137.506V5.59348C137.714 5.20534 137.995 4.88671 138.35 4.63739C138.704 4.38785 139.076 4.24228 139.466 4.20086C139.568 4.19389 139.691 4.1904 139.835 4.1904V4.53343Z" fill="#605F5F"/>
<path d="M150.687 9.72363H150.289V6.63698C150.289 5.89227 150.163 5.34051 149.911 4.9819C149.659 4.62349 149.274 4.44408 148.755 4.44408C148.224 4.44408 147.756 4.61303 147.348 4.95073C146.941 5.28864 146.654 5.72947 146.488 6.27324V9.72363H146.09V6.63698C146.09 5.88182 145.967 5.32739 145.721 4.97411C145.474 4.62083 145.09 4.44408 144.567 4.44408C144.044 4.44408 143.578 4.61037 143.169 4.94294C142.76 5.27552 142.47 5.71553 142.3 6.26298V9.72363H141.902V4.18942H142.283V5.5718C142.54 5.10759 142.873 4.74734 143.28 4.49083C143.687 4.23453 144.132 4.10618 144.613 4.10618C145.113 4.10618 145.526 4.24766 145.854 4.52999C146.182 4.81233 146.378 5.18899 146.442 5.65996C147.033 4.62431 147.831 4.10618 148.835 4.10618C149.467 4.10618 149.934 4.31511 150.235 4.73257C150.536 5.15003 150.687 5.77089 150.687 6.59556V9.72363Z" fill="#605F5F"/>
<path d="M157.172 8.61737C157.312 8.45805 157.382 8.30222 157.382 8.14968V7.13637C156.784 6.92518 156.14 6.81959 155.45 6.81959C154.807 6.81959 154.286 6.9383 153.891 7.17533C153.495 7.41277 153.297 7.72709 153.297 8.11851C153.297 8.50665 153.455 8.83738 153.771 9.1111C154.088 9.38483 154.481 9.52159 154.95 9.52159C155.424 9.52159 155.862 9.43855 156.266 9.27206C156.669 9.10598 156.971 8.88761 157.172 8.61737ZM152.916 8.13942C152.916 7.66127 153.15 7.27252 153.618 6.97275C154.086 6.67319 154.689 6.5231 155.428 6.5231C156.125 6.5231 156.776 6.62193 157.382 6.81959V6.23215C157.382 5.68839 157.208 5.25268 156.86 4.92544C156.511 4.59799 156.049 4.43416 155.473 4.43416C154.871 4.43416 154.223 4.65766 153.53 5.10464L153.337 4.83973C154.113 4.35112 154.833 4.10692 155.496 4.10692C156.197 4.10692 156.752 4.30007 157.164 4.68636C157.575 5.07265 157.78 5.59489 157.78 6.25306V9.17344C157.78 9.32926 157.85 9.40718 157.99 9.40718V9.72417C157.88 9.73463 157.806 9.73114 157.769 9.71371C157.663 9.693 157.577 9.64195 157.513 9.56055C157.449 9.47915 157.412 9.38483 157.405 9.27739V8.79924C157.129 9.12484 156.769 9.37786 156.328 9.55809C155.887 9.73811 155.413 9.82812 154.905 9.82812C154.34 9.82812 153.868 9.66532 153.487 9.33972C153.107 9.01412 152.916 8.61388 152.916 8.13942Z" fill="#605F5F"/>
<path d="M98.1145 19.4428V25.0767H94.6768V13.6199H97.3564L102.388 19.4428V13.6199H105.826V25.0767H103.095L98.1145 19.4428Z" fill="#636363"/>
<path d="M107.042 16.5903H110.394V25.0767H107.042V16.5903Z" fill="#636363"/>
<path d="M111.307 13.2968H114.658V21.7042C114.658 22.3503 114.948 22.6734 115.528 22.6734C115.81 22.6734 116.114 22.592 116.442 22.429L116.864 24.6906C116.473 24.8587 116.027 24.9914 115.524 25.0886C115.021 25.1856 114.546 25.2344 114.098 25.2344C113.202 25.2344 112.513 25.0228 112.03 24.6C111.548 24.1772 111.307 23.5717 111.307 22.7837V13.2968Z" fill="#636363"/>
<path d="M120.323 22.1622C120.63 22.4932 121.025 22.6588 121.507 22.6588C121.99 22.6588 122.383 22.4932 122.688 22.1622C122.992 21.8313 123.144 21.3874 123.144 20.8307C123.144 20.2738 122.992 19.8313 122.688 19.5029C122.383 19.1748 121.99 19.0106 121.507 19.0106C121.019 19.0106 120.623 19.1748 120.318 19.5029C120.014 19.8313 119.862 20.2738 119.862 20.8307C119.862 21.3874 120.015 21.8313 120.323 22.1622ZM116.424 20.8307C116.424 20.2371 116.536 19.6776 116.76 19.1523C116.984 18.6269 117.303 18.1607 117.716 17.7537C118.13 17.3467 118.664 17.0235 119.319 16.7845C119.973 16.5456 120.703 16.4261 121.507 16.4261C122.311 16.4261 123.041 16.5456 123.696 16.7845C124.351 17.0235 124.885 17.3467 125.298 17.7537C125.712 18.1607 126.031 18.6269 126.255 19.1523C126.479 19.6776 126.591 20.2371 126.591 20.8307C126.591 21.419 126.479 21.9758 126.255 22.501C126.031 23.0265 125.712 23.4937 125.298 23.9036C124.885 24.3133 124.351 24.6377 123.696 24.8767C123.041 25.1158 122.311 25.2354 121.507 25.2354C120.703 25.2354 119.973 25.1158 119.319 24.8767C118.664 24.6377 118.13 24.3133 117.716 23.9036C117.303 23.4937 116.984 23.0265 116.76 22.501C116.536 21.9758 116.424 21.419 116.424 20.8307Z" fill="#636363"/>
<path d="M133.985 18.8123H135.803C136.044 18.8123 136.249 18.7151 136.419 18.5209C136.588 18.3266 136.673 18.0166 136.673 17.5909C136.673 17.1603 136.577 16.8478 136.384 16.6535C136.192 16.4591 135.969 16.3619 135.717 16.3619H133.985V18.8123ZM130.547 25.0767V13.6197H135.949C136.541 13.6197 137.104 13.7353 137.638 13.9664C138.172 14.1977 138.62 14.4997 138.982 14.8727C139.344 15.2457 139.631 15.6699 139.844 16.1452C140.056 16.6206 140.162 17.1025 140.162 17.5909C140.162 18.1006 140.062 18.5944 139.861 19.0723C139.66 19.5504 139.383 19.9732 139.029 20.3411C138.676 20.7087 138.238 21.0042 137.716 21.2275C137.193 21.4507 136.633 21.5623 136.035 21.5623H133.985V25.0767H130.547Z" fill="#636363"/>
<path d="M143.36 19.9314H146.436C146.385 19.5218 146.222 19.1986 145.95 18.9624C145.677 18.7258 145.328 18.6077 144.903 18.6077C144.478 18.6077 144.127 18.7258 143.852 18.9624C143.576 19.1986 143.412 19.5218 143.36 19.9314ZM144.954 25.2344C144.317 25.2344 143.724 25.1581 143.175 25.006C142.627 24.8536 142.153 24.6449 141.754 24.3796C141.354 24.1142 141.011 23.8018 140.724 23.4417C140.437 23.0821 140.223 22.6909 140.082 22.2679C139.941 21.8449 139.871 21.4051 139.871 20.948C139.871 20.3282 139.981 19.7477 140.203 19.2066C140.424 18.6655 140.744 18.1876 141.163 17.7726C141.583 17.3576 142.118 17.0293 142.77 16.7876C143.422 16.5461 144.15 16.4251 144.954 16.4251C145.759 16.4251 146.488 16.5446 147.143 16.7837C147.798 17.0228 148.332 17.3459 148.746 17.7529C149.159 18.1599 149.478 18.6262 149.702 19.1515C149.926 19.6768 150.038 20.2361 150.038 20.8297C150.038 21.1397 150.006 21.4524 149.943 21.7676H143.438C143.472 22.193 143.645 22.5121 143.955 22.7247C144.265 22.9377 144.633 23.0439 145.058 23.0439C145.431 23.0439 145.778 22.9652 146.1 22.8075C146.422 22.6499 146.635 22.4424 146.738 22.185L149.573 22.9336C149.176 23.6375 148.58 24.1971 147.785 24.6119C146.989 25.0269 146.046 25.2344 144.954 25.2344Z" fill="#636363"/>
<path d="M164.817 22.7208C165.11 22.5473 165.256 22.3478 165.256 22.1221V21.4916C164.802 21.3446 164.372 21.271 163.964 21.271C163.562 21.271 163.224 21.363 162.951 21.5467C162.678 21.7307 162.542 21.9617 162.542 22.2402C162.542 22.4713 162.644 22.663 162.848 22.8155C163.052 22.9679 163.312 23.0439 163.628 23.0439C164.07 23.0439 164.466 22.9363 164.817 22.7208ZM159.38 22.5082C159.38 21.6571 159.755 20.9612 160.504 20.4199C161.254 19.879 162.215 19.6083 163.386 19.6083C164.15 19.6083 164.774 19.7162 165.256 19.9314V19.6715C165.256 19.2722 165.128 18.9756 164.873 18.7812C164.617 18.5868 164.211 18.4896 163.653 18.4896C163.154 18.4896 162.68 18.5642 162.232 18.7141C161.784 18.8638 161.298 19.0963 160.776 19.4115L159.802 17.5046C161.026 16.7849 162.418 16.4251 163.981 16.4251C165.469 16.4251 166.612 16.7322 167.41 17.3469C168.208 17.9616 168.608 18.8599 168.608 20.0418V21.6886C168.608 21.9775 168.654 22.1799 168.746 22.2953C168.837 22.411 169.004 22.4766 169.245 22.4924V25.0769C168.728 25.1819 168.257 25.2344 167.832 25.2344C166.689 25.2344 166.032 24.8432 165.859 24.0603L165.782 23.753C164.937 24.7406 163.886 25.2344 162.628 25.2344C161.698 25.2344 160.924 24.9756 160.306 24.4583C159.689 23.9408 159.38 23.2908 159.38 22.5082Z" fill="#636363"/>
<path d="M179.087 25.0767H175.735V20.3017C175.735 19.9076 175.638 19.6095 175.442 19.4073C175.247 19.2052 175.003 19.1039 174.71 19.1039C174.417 19.1039 174.113 19.2195 173.797 19.4506C173.481 19.6819 173.248 19.9708 173.099 20.3175V25.0767H169.747V16.5903H172.772V17.8433C173.099 17.3811 173.561 17.0291 174.159 16.7873C174.756 16.5458 175.457 16.425 176.261 16.425C176.663 16.425 177.023 16.4722 177.342 16.5667C177.661 16.6612 177.92 16.7939 178.118 16.9647C178.316 17.1355 178.482 17.3192 178.617 17.5163C178.752 17.7131 178.853 17.9366 178.919 18.1861C178.985 18.4354 179.03 18.6602 179.052 18.8597C179.075 19.0594 179.087 19.2695 179.087 19.49V25.0767Z" fill="#636363"/>
<path d="M189.331 25.0771H185.979V20.3022C185.979 19.903 185.882 19.6036 185.686 19.4039C185.491 19.2042 185.23 19.1044 184.902 19.1044C184.661 19.1044 184.378 19.22 184.054 19.4511C183.729 19.6824 183.492 19.9713 183.343 20.318V25.0771H179.991V13.2972H183.343V17.8438C183.67 17.3867 184.1 17.0361 184.631 16.7919C185.162 16.5475 185.758 16.4255 186.419 16.4255C186.919 16.4255 187.352 16.4938 187.72 16.6302C188.087 16.7669 188.372 16.9363 188.573 17.1387C188.774 17.3406 188.935 17.5891 189.056 17.8831C189.176 18.1774 189.252 18.4454 189.284 18.6867C189.315 18.9284 189.331 19.1964 189.331 19.4904V25.0771Z" fill="#636363"/>
<path d="M195.164 22.7208C195.457 22.5473 195.604 22.3478 195.604 22.1221V21.4916C195.15 21.3446 194.719 21.271 194.311 21.271C193.909 21.271 193.572 21.363 193.299 21.5467C193.026 21.7307 192.89 21.9617 192.89 22.2402C192.89 22.4713 192.992 22.663 193.196 22.8155C193.399 22.9679 193.659 23.0439 193.975 23.0439C194.418 23.0439 194.814 22.9363 195.164 22.7208ZM189.728 22.5082C189.728 21.6571 190.102 20.9612 190.852 20.4199C191.602 19.879 192.562 19.6083 193.734 19.6083C194.498 19.6083 195.121 19.7162 195.604 19.9314V19.6715C195.604 19.2722 195.476 18.9756 195.22 18.7812C194.965 18.5868 194.558 18.4896 194.001 18.4896C193.501 18.4896 193.027 18.5642 192.579 18.7141C192.131 18.8638 191.646 19.0963 191.123 19.4115L190.15 17.5046C191.373 16.7849 192.766 16.4251 194.328 16.4251C195.816 16.4251 196.959 16.7322 197.758 17.3469C198.556 17.9616 198.955 18.8599 198.955 20.0418V21.6886C198.955 21.9775 199.001 22.1799 199.093 22.2953C199.185 22.411 199.352 22.4766 199.593 22.4924V25.0769C199.076 25.1819 198.605 25.2344 198.18 25.2344C197.037 25.2344 196.379 24.8432 196.207 24.0603L196.129 23.753C195.285 24.7406 194.234 25.2344 192.976 25.2344C192.045 25.2344 191.271 24.9756 190.654 24.4583C190.036 23.9408 189.728 23.2908 189.728 22.5082Z" fill="#636363"/>
<path d="M107.039 13.2968H110.391V15.8813H107.039" fill="#636363"/>
<path d="M153.513 25.5018V28.1958L156.56 26.2967L156.562 25.5018H153.513Z" fill="#636363"/>
<path d="M154.992 22.6578C154.521 22.6578 154.128 22.4923 153.815 22.1612C153.502 21.8302 153.346 21.3865 153.346 20.8296C153.346 20.2727 153.502 19.8303 153.815 19.502C154.128 19.1737 154.521 19.0095 154.992 19.0095C155.531 19.0095 155.959 19.2197 156.275 19.6398L159.541 18.7337C159.145 18.0245 158.56 17.4625 157.787 17.0475C157.015 16.6325 156.089 16.425 155.009 16.425C154.21 16.425 153.485 16.5445 152.833 16.7834C152.181 17.0225 151.644 17.3468 151.222 17.7565C150.8 18.1662 150.475 18.6341 150.248 19.1592C150.021 19.6845 149.908 20.2414 149.908 20.8296C149.908 21.5598 150.075 22.236 150.408 22.8587C150.741 23.4812 151.248 24.0065 151.929 24.4344C152.609 24.8627 153.412 25.1186 154.337 25.2027C154.338 25.2041 154.34 25.2056 154.341 25.207C154.554 25.2255 154.773 25.2363 154.997 25.2363C155.375 25.2363 155.741 25.2084 156.087 25.1568C156.087 25.1564 156.086 25.156 156.086 25.1555C156.89 25.0348 157.583 24.7801 158.167 24.3912C158.211 24.3616 158.254 24.3303 158.296 24.2995C158.342 24.2618 158.386 24.2232 158.427 24.1839V24.2033C158.887 23.8492 159.259 23.4264 159.541 22.9333L156.275 22.0273C155.959 22.4476 155.531 22.6578 154.992 22.6578Z" fill="#636363"/>
</svg>
